<?xml version="1.0" encoding="UTF-8"?>
<svg id="Camada_11" data-name="Camada 11" xmlns="http://www.w3.org/2000/svg" version="1.1" viewBox="0 0 1690.4 426">
  <defs>
    <style>
      .cls-1 {
        fill: #1b0f49;
        stroke-width: 0px;
      }
    </style>
  </defs>
  <g>
    <path class="cls-1" d="M1142.8,331.9c-7.4,5.3-13.9,11.2-21.4,15-30.2,15.4-60.8,13.2-88.1-5.1-70-46.8-60.7-142.3-7.8-181.8,31-23.2,64.7-28.1,100.3-10.4,3.1,1.5,6.2,2.8,10.3,4.6,0-21.5.1-41.5,0-61.5-.2-21.5-1.5-18.1,18.1-18.3,13.2-.1,26.4.3,39.6-.1,7.2-.2,9.2,2.5,9.2,9.5-.2,87.5-.2,175,0,262.5,0,7.4-2.2,10.2-9.7,9.9-12.3-.5-24.6-.4-36.9,0-6.4.2-9.3-2-10-8.4-.6-5.2-2.3-10.4-3.6-16h0ZM1141.1,249.5c0-27.3-22.2-50.2-49-50.4-25.4-.2-44.7,19.7-44.9,46-.1,28.6,20.4,51.5,46.3,51.6,27.8.2,47.5-19.4,47.6-47.3h0Z"/>
    <path class="cls-1" d="M558.3,74.5v130.4c.7.3,1.5.6,2.2.9,2.2-2.1,4.5-4.2,6.6-6.4,16.5-17,32.8-34.1,49.4-50.9,2.3-2.4,5.9-5,9-5,25.2-.4,50.4-.2,77.8-.2-7,7.4-12.6,13.4-18.4,19.1-20,19.9-39.9,39.8-60.1,59.5-4.8,4.6-5.4,7.6-.8,13.2,30.9,37,61.3,74.4,91.9,111.7,1.8,2.2,3.4,4.7,6.5,9.1h-12.1c-20.1,0-40.2-.3-60.4.2-7,.2-11.2-2.9-15.1-7.8-20.1-25.3-40.3-50.5-60.6-75.7-1.2-1.5-2.9-2.8-4.2-4-9.1,4.8-12.3,11.7-12,21.5.6,18.3,0,36.5-.2,54.8,0,3.2-.5,6.5-.8,11.3-20.9,0-41.3.2-61.6-.3-1.7,0-4.5-5-4.6-7.8-.5-11.7,0-23.4,0-35,0-73.4,0-146.8,0-220.3,0-18.1.2-18.1,17.8-18.1h49.6Z"/>
    <path class="cls-1" d="M1609.4,355.8c-3.5,0-7,0-10.5,0-20.1,0-40.3-.4-60.3.4-9.2.4-15.2-2.9-20.8-9.6-12.2-14.8-25.1-29-37.2-43.8-5-6.1-8.1-5.9-13.1.2-12.2,15.2-25.1,29.8-37.5,44.8-4.7,5.7-10,8.4-17.7,8.2-24.2-.5-48.5-.2-75.2-.2,6.7-7.8,11.9-14,17.3-20,24-26.7,48-53.5,72.2-80,4.7-5.2,5.1-9.2.4-14.5-26.7-29.9-53.2-60-79.8-90.1-2.5-2.9-5.2-5.6-8.6-9.2,2.3-.6,3.5-1.2,4.8-1.2,25.2.2,50.4.7,75.6.6,6.3,0,10.6,1.7,14.7,6.6,12.8,15.8,26,31.2,42.8,49.8,1.4-3,2.2-6.6,4.2-9,11.8-13.9,23.8-27.8,36.1-41.2,2.6-2.8,7-5.3,10.6-5.4,25.5-.6,51-.6,76.6-.7,1.4,0,2.7.5,5.8,1.2-5.2,5.4-9.5,9.8-13.6,14.3-25.4,27.9-50.6,55.9-76.1,83.7-4.1,4.5-3.2,7.3.4,11.3,26.4,29.4,52.6,59,78.9,88.5,3.7,4.2,7.4,8.5,11.1,12.7-.4.8-.7,1.6-1.1,2.4h0Z"/>
    <path class="cls-1" d="M839.5,140c58.9-2.4,109,48.1,109.4,109.6.3,50-39.4,108.6-112.3,108-68-.5-106.2-56.1-108.4-103.7-2.3-51.5,39-117.3,111.4-113.9h0ZM838.1,199.1c-25.2,0-45.1,21.1-45.3,48.1-.2,27.8,19.8,49.2,46.1,49.3,25.3.1,46.6-21.3,46.7-47,0-27.6-21.4-50.4-47.6-50.5h0Z"/>
    <path class="cls-1" d="M1252.8,355.7c0-5.9,0-11,0-16,.2-62.3.4-124.6.3-186.9,0-6.6,1.6-9,8.5-8.8,15.9.5,31.8.4,47.7,0,5.9-.1,8.5,1.1,8.5,7.8-.1,64.7,0,129.4.2,194.1,0,7.2-2.1,10.1-9.7,9.9-18.2-.5-36.4-.2-55.6-.2Z"/>
    <path class="cls-1" d="M1255.8,97c.1-18.3,13.2-31.6,30.8-31.4,17.8.2,31.7,14.3,31.7,32,0,17.1-14.3,31.5-31.3,31.6-17.8.2-31.3-13.7-31.2-32.3h0Z"/>
  </g>
  <g>
    <path class="cls-1" d="M300.7,331.5c14.5,14.3,26.7,26.3,44.9,44.2,9.2,9.1,24.3,8.8,33.6-.6s9.3-24.5,0-33.6c-26.1-25.7-40-39.3-66.1-65.1-9.5-9.3-24.7-9.2-34,.3-25.7,26.1-39.3,40-65.1,66.1-9.1,9.2-8.8,24.3.6,33.6,9.5,9.3,24.5,9.3,33.6,0,17.8-18,29.8-30.2,44-44.6l.2-.2c2.2-2.3,5.9-2.3,8.1,0"/>
    <path class="cls-1" d="M292.7,127.2c-14.5-14.3-26.7-26.3-44.9-44.2-9.2-9.1-24.3-8.8-33.6.6-9.3,9.5-9.4,24.5-.1,33.6,26.1,25.7,40,39.3,66.1,65.1,9.5,9.3,24.7,9.2,34-.3,25.7-26.1,39.3-40,65.1-66.1,9.1-9.2,8.8-24.3-.6-33.6s-24.5-9.4-33.6-.1c-17.8,18-29.8,30.2-44,44.6l-.2.2c-2.2,2.3-5.9,2.3-8.1,0"/>
    <path class="cls-1" d="M104.5,232c-14.3,14.5-8.8,8.9-26.7,27.1-9.1,9.2-8.8,24.3.6,33.6,9.5,9.3,24.5,9.3,33.6,0,25.7-26.1,21.8-22.2,47.5-48.3,9.3-9.5,9.2-24.7-.3-34-26.1-25.7-20.1-19.8-46.2-45.5-9.2-9.1-24.3-8.8-33.6.6-9.3,9.5-9.4,24.5-.1,33.6,18,17.8,10.4,10.2,24.8,24.4l.2.2c2.3,2.2,2.3,5.9,0,8.2"/>
    <path class="cls-1" d="M382.3,224.7c14.3-14.5,8.8-8.9,26.7-27.1,9.1-9.2,8.8-24.3-.6-33.6s-24.5-9.4-33.6-.1c-25.7,26.1-21.8,22.2-47.5,48.3-9.3,9.5-9.2,24.7.3,34,26.1,25.7,20.1,19.8,46.2,45.5,9.2,9.1,24.3,8.8,33.6-.6s9.3-24.5,0-33.6c-18-17.8-10.4-10.2-24.8-24.4l-.2-.2c-2.3-2.2-2.3-5.9,0-8.2"/>
    <path class="cls-1" d="M209.2,233.1c-14.3,14.5-31.2,31.9-108.9,110.6-9.1,9.2-8.8,24.3.6,33.6s24.5,9.3,33.6,0c54-54.5,104-105.7,129.8-131.8,9.3-9.5,9.2-24.7-.3-34-26.1-25.7-102.9-102.7-129.1-128.4-9.2-9.1-24.3-8.8-33.6.6-9.3,9.5-9.4,24.5-.1,33.6,18,17.8,93.2,93.1,107.6,107.3l.2.2c2.3,2.2,2.3,5.9,0,8.2"/>
  </g>
</svg>